<svg xmlns="http://www.w3.org/2000/svg" width="384" height="384" viewBox="0 0 384 384" role="img" aria-label="Bread loaf">
<title>Bread loaf</title>
<rect width="100%" height="100%" fill="white"/>
<g fill="black">
<rect x="84" y="60" width="24" height="24"/>
<rect x="108" y="60" width="24" height="24"/>
<rect x="132" y="60" width="24" height="24"/>
<rect x="156" y="60" width="24" height="24"/>
<rect x="180" y="60" width="24" height="24"/>
<rect x="204" y="60" width="24" height="24"/>
<rect x="228" y="60" width="24" height="24"/>
<rect x="252" y="60" width="24" height="24"/>
<rect x="276" y="60" width="24" height="24"/>
<rect x="84" y="84" width="24" height="24"/>
<rect x="108" y="84" width="24" height="24"/>
<rect x="132" y="84" width="24" height="24"/>
<rect x="156" y="84" width="24" height="24"/>
<rect x="180" y="84" width="24" height="24"/>
<rect x="204" y="84" width="24" height="24"/>
<rect x="228" y="84" width="24" height="24"/>
<rect x="252" y="84" width="24" height="24"/>
<rect x="276" y="84" width="24" height="24"/>
<rect x="60" y="108" width="24" height="24"/>
<rect x="84" y="108" width="24" height="24"/>
<rect x="108" y="108" width="24" height="24"/>
<rect x="132" y="108" width="24" height="24"/>
<rect x="156" y="108" width="24" height="24"/>
<rect x="180" y="108" width="24" height="24"/>
<rect x="204" y="108" width="24" height="24"/>
<rect x="228" y="108" width="24" height="24"/>
<rect x="252" y="108" width="24" height="24"/>
<rect x="276" y="108" width="24" height="24"/>
<rect x="300" y="108" width="24" height="24"/>
<rect x="36" y="132" width="24" height="24"/>
<rect x="60" y="132" width="24" height="24"/>
<rect x="84" y="132" width="24" height="24"/>
<rect x="108" y="132" width="24" height="24"/>
<rect x="132" y="132" width="24" height="24"/>
<rect x="156" y="132" width="24" height="24"/>
<rect x="180" y="132" width="24" height="24"/>
<rect x="204" y="132" width="24" height="24"/>
<rect x="228" y="132" width="24" height="24"/>
<rect x="252" y="132" width="24" height="24"/>
<rect x="276" y="132" width="24" height="24"/>
<rect x="300" y="132" width="24" height="24"/>
<rect x="324" y="132" width="24" height="24"/>
<rect x="36" y="156" width="24" height="24"/>
<rect x="60" y="156" width="24" height="24"/>
<rect x="84" y="156" width="24" height="24"/>
<rect x="108" y="156" width="24" height="24"/>
<rect x="132" y="156" width="24" height="24"/>
<rect x="156" y="156" width="24" height="24"/>
<rect x="180" y="156" width="24" height="24"/>
<rect x="204" y="156" width="24" height="24"/>
<rect x="228" y="156" width="24" height="24"/>
<rect x="252" y="156" width="24" height="24"/>
<rect x="276" y="156" width="24" height="24"/>
<rect x="300" y="156" width="24" height="24"/>
<rect x="324" y="156" width="24" height="24"/>
<rect x="36" y="180" width="24" height="24"/>
<rect x="60" y="180" width="24" height="24"/>
<rect x="84" y="180" width="24" height="24"/>
<rect x="108" y="180" width="24" height="24"/>
<rect x="132" y="180" width="24" height="24"/>
<rect x="156" y="180" width="24" height="24"/>
<rect x="180" y="180" width="24" height="24"/>
<rect x="204" y="180" width="24" height="24"/>
<rect x="228" y="180" width="24" height="24"/>
<rect x="252" y="180" width="24" height="24"/>
<rect x="276" y="180" width="24" height="24"/>
<rect x="300" y="180" width="24" height="24"/>
<rect x="324" y="180" width="24" height="24"/>
<rect x="36" y="204" width="24" height="24"/>
<rect x="60" y="204" width="24" height="24"/>
<rect x="84" y="204" width="24" height="24"/>
<rect x="108" y="204" width="24" height="24"/>
<rect x="132" y="204" width="24" height="24"/>
<rect x="156" y="204" width="24" height="24"/>
<rect x="180" y="204" width="24" height="24"/>
<rect x="204" y="204" width="24" height="24"/>
<rect x="228" y="204" width="24" height="24"/>
<rect x="252" y="204" width="24" height="24"/>
<rect x="276" y="204" width="24" height="24"/>
<rect x="300" y="204" width="24" height="24"/>
<rect x="324" y="204" width="24" height="24"/>
<rect x="36" y="228" width="24" height="24"/>
<rect x="60" y="228" width="24" height="24"/>
<rect x="84" y="228" width="24" height="24"/>
<rect x="108" y="228" width="24" height="24"/>
<rect x="132" y="228" width="24" height="24"/>
<rect x="156" y="228" width="24" height="24"/>
<rect x="180" y="228" width="24" height="24"/>
<rect x="204" y="228" width="24" height="24"/>
<rect x="228" y="228" width="24" height="24"/>
<rect x="252" y="228" width="24" height="24"/>
<rect x="276" y="228" width="24" height="24"/>
<rect x="300" y="228" width="24" height="24"/>
<rect x="324" y="228" width="24" height="24"/>
<rect x="36" y="252" width="24" height="24"/>
<rect x="60" y="252" width="24" height="24"/>
<rect x="84" y="252" width="24" height="24"/>
<rect x="108" y="252" width="24" height="24"/>
<rect x="132" y="252" width="24" height="24"/>
<rect x="156" y="252" width="24" height="24"/>
<rect x="180" y="252" width="24" height="24"/>
<rect x="204" y="252" width="24" height="24"/>
<rect x="228" y="252" width="24" height="24"/>
<rect x="252" y="252" width="24" height="24"/>
<rect x="276" y="252" width="24" height="24"/>
<rect x="300" y="252" width="24" height="24"/>
<rect x="324" y="252" width="24" height="24"/>
<rect x="36" y="276" width="24" height="24"/>
<rect x="60" y="276" width="24" height="24"/>
<rect x="84" y="276" width="24" height="24"/>
<rect x="108" y="276" width="24" height="24"/>
<rect x="132" y="276" width="24" height="24"/>
<rect x="156" y="276" width="24" height="24"/>
<rect x="180" y="276" width="24" height="24"/>
<rect x="204" y="276" width="24" height="24"/>
<rect x="228" y="276" width="24" height="24"/>
<rect x="252" y="276" width="24" height="24"/>
<rect x="276" y="276" width="24" height="24"/>
<rect x="300" y="276" width="24" height="24"/>
<rect x="324" y="276" width="24" height="24"/>
</g>
</svg>
